<mxfile host="Electron" modified="2023-12-05T12:15:38.569Z" agent="Mozilla/5.0 (Windows NT 10.0; Win64; x64) AppleWebKit/537.36 (KHTML, like Gecko) draw.io/22.0.3 Chrome/114.0.5735.289 Electron/25.8.4 Safari/537.36" etag="cF5numoF4PZQVdZCEBcc" version="22.0.3" type="device">
  <diagram id="C5RBs43oDa-KdzZeNtuy" name="Page-1">
    <mxGraphModel dx="1200" dy="433" grid="1" gridSize="10" guides="1" tooltips="1" connect="1" arrows="1" fold="1" page="1" pageScale="1" pageWidth="827" pageHeight="1169" background="none" math="0" shadow="0">
      <root>
        <mxCell id="WIyWlLk6GJQsqaUBKTNV-0" />
        <mxCell id="WIyWlLk6GJQsqaUBKTNV-1" parent="WIyWlLk6GJQsqaUBKTNV-0" />
        <mxCell id="O6kwRCL_06sW0Yhjf2Mc-2" value="начало" style="ellipse;whiteSpace=wrap;html=1;strokeColor=#36393d;fillColor=#eeeeee;fontColor=#000000;" parent="WIyWlLk6GJQsqaUBKTNV-1" vertex="1">
          <mxGeometry x="-540" y="40" width="120" height="50" as="geometry" />
        </mxCell>
        <mxCell id="CJra_WSzJUt3smpGOyG3-4" value="Начало цикла 1&lt;br&gt;i &amp;gt; N" style="strokeWidth=1;html=1;shape=mxgraph.flowchart.loop_limit;whiteSpace=wrap;strokeColor=#36393d;fillColor=#eeeeee;fontColor=#000000;" parent="WIyWlLk6GJQsqaUBKTNV-1" vertex="1">
          <mxGeometry x="-540" y="340" width="120" height="70" as="geometry" />
        </mxCell>
        <mxCell id="CJra_WSzJUt3smpGOyG3-6" value="" style="rounded=0;html=1;jettySize=auto;orthogonalLoop=1;fontSize=11;endArrow=block;endFill=0;endSize=8;strokeWidth=1;shadow=0;labelBackgroundColor=none;edgeStyle=orthogonalEdgeStyle;strokeColor=#36393d;fillColor=#eeeeee;fontColor=#000000;" parent="WIyWlLk6GJQsqaUBKTNV-1" edge="1">
          <mxGeometry relative="1" as="geometry">
            <mxPoint x="-480.5" y="240" as="sourcePoint" />
            <mxPoint x="-480.23" y="270" as="targetPoint" />
          </mxGeometry>
        </mxCell>
        <mxCell id="CJra_WSzJUt3smpGOyG3-8" value="Ввод i, c,&lt;br&gt;array[1...N]" style="shape=parallelogram;perimeter=parallelogramPerimeter;whiteSpace=wrap;html=1;fixedSize=1;strokeColor=#36393d;fillColor=#eeeeee;fontColor=#000000;" parent="WIyWlLk6GJQsqaUBKTNV-1" vertex="1">
          <mxGeometry x="-540" y="190" width="120" height="50" as="geometry" />
        </mxCell>
        <mxCell id="CJra_WSzJUt3smpGOyG3-32" value="" style="rounded=0;html=1;jettySize=auto;orthogonalLoop=1;fontSize=11;endArrow=block;endFill=0;endSize=8;strokeWidth=1;shadow=0;labelBackgroundColor=none;edgeStyle=orthogonalEdgeStyle;strokeColor=#36393d;fillColor=#eeeeee;fontColor=#000000;" parent="WIyWlLk6GJQsqaUBKTNV-1" edge="1">
          <mxGeometry relative="1" as="geometry">
            <mxPoint x="-480.34000000000003" y="90" as="sourcePoint" />
            <mxPoint x="-480.07000000000005" y="120" as="targetPoint" />
          </mxGeometry>
        </mxCell>
        <mxCell id="CJra_WSzJUt3smpGOyG3-35" value="" style="rounded=0;html=1;jettySize=auto;orthogonalLoop=1;fontSize=11;endArrow=block;endFill=0;endSize=8;strokeWidth=1;shadow=0;labelBackgroundColor=none;edgeStyle=orthogonalEdgeStyle;strokeColor=#36393d;fillColor=#eeeeee;fontColor=#000000;" parent="WIyWlLk6GJQsqaUBKTNV-1" edge="1">
          <mxGeometry relative="1" as="geometry">
            <mxPoint x="-480.16999999999996" y="160" as="sourcePoint" />
            <mxPoint x="-479.9" y="190" as="targetPoint" />
          </mxGeometry>
        </mxCell>
        <mxCell id="gXV8-5lS1U5zjnlFUvk6-14" value="&lt;font style=&quot;font-size: 12px;&quot;&gt;a[i]&amp;gt;a[i+1]&lt;/font&gt;" style="rhombus;whiteSpace=wrap;html=1;shadow=0;fontFamily=Helvetica;fontSize=12;align=center;strokeWidth=1;spacing=6;spacingTop=-4;strokeColor=#36393d;fillColor=#eeeeee;fontColor=#000000;" parent="WIyWlLk6GJQsqaUBKTNV-1" vertex="1">
          <mxGeometry x="-360" y="360" width="120" height="70" as="geometry" />
        </mxCell>
        <mxCell id="Kg9K-jLbq-SvP9runcIR-1" value="" style="rounded=0;html=1;jettySize=auto;orthogonalLoop=1;fontSize=11;endArrow=block;endFill=0;endSize=8;strokeWidth=1;shadow=0;labelBackgroundColor=none;edgeStyle=orthogonalEdgeStyle;strokeColor=#36393d;fillColor=#eeeeee;fontColor=#000000;" parent="WIyWlLk6GJQsqaUBKTNV-1" edge="1">
          <mxGeometry relative="1" as="geometry">
            <mxPoint x="-480.5000000000001" y="310" as="sourcePoint" />
            <mxPoint x="-480.23000000000013" y="340" as="targetPoint" />
          </mxGeometry>
        </mxCell>
        <mxCell id="Kg9K-jLbq-SvP9runcIR-3" value="" style="rounded=0;html=1;jettySize=auto;orthogonalLoop=1;fontSize=11;endArrow=block;endFill=0;endSize=8;strokeWidth=1;shadow=0;labelBackgroundColor=none;edgeStyle=orthogonalEdgeStyle;strokeColor=#36393d;fillColor=#eeeeee;fontColor=#000000;" parent="WIyWlLk6GJQsqaUBKTNV-1" edge="1">
          <mxGeometry relative="1" as="geometry">
            <mxPoint x="-480.2600000000001" y="410" as="sourcePoint" />
            <mxPoint x="-479.9900000000001" y="440" as="targetPoint" />
          </mxGeometry>
        </mxCell>
        <mxCell id="Kg9K-jLbq-SvP9runcIR-17" value="" style="rounded=0;html=1;jettySize=auto;orthogonalLoop=1;fontSize=11;endArrow=block;endFill=0;endSize=8;strokeWidth=1;shadow=0;labelBackgroundColor=none;edgeStyle=orthogonalEdgeStyle;strokeColor=#36393d;fillColor=#eeeeee;fontColor=#000000;" parent="WIyWlLk6GJQsqaUBKTNV-1" edge="1">
          <mxGeometry relative="1" as="geometry">
            <mxPoint x="-480.3700000000001" y="730" as="sourcePoint" />
            <mxPoint x="-480.3700000000001" y="760" as="targetPoint" />
          </mxGeometry>
        </mxCell>
        <mxCell id="Kg9K-jLbq-SvP9runcIR-18" value="конец" style="ellipse;whiteSpace=wrap;html=1;strokeColor=#36393d;fillColor=#eeeeee;fontColor=#000000;" parent="WIyWlLk6GJQsqaUBKTNV-1" vertex="1">
          <mxGeometry x="-360" y="910" width="120" height="50" as="geometry" />
        </mxCell>
        <mxCell id="SMtHybRJAJT8ehfguQuV-0" value="CONST N=5" style="rounded=0;whiteSpace=wrap;html=1;strokeColor=#36393d;fillColor=#eeeeee;fontColor=#000000;" parent="WIyWlLk6GJQsqaUBKTNV-1" vertex="1">
          <mxGeometry x="-540" y="120" width="120" height="40" as="geometry" />
        </mxCell>
        <mxCell id="SMtHybRJAJT8ehfguQuV-1" value="c:=0" style="rounded=0;whiteSpace=wrap;html=1;strokeColor=#36393d;fillColor=#eeeeee;fontColor=#000000;" parent="WIyWlLk6GJQsqaUBKTNV-1" vertex="1">
          <mxGeometry x="-540" y="270" width="120" height="40" as="geometry" />
        </mxCell>
        <mxCell id="SMtHybRJAJT8ehfguQuV-10" value="Конец цикла 1" style="strokeWidth=1;html=1;shape=mxgraph.flowchart.loop_limit;whiteSpace=wrap;strokeColor=#36393d;fillColor=#eeeeee;fontColor=#000000;direction=west;" parent="WIyWlLk6GJQsqaUBKTNV-1" vertex="1">
          <mxGeometry x="-540" y="580" width="120" height="70" as="geometry" />
        </mxCell>
        <mxCell id="SMtHybRJAJT8ehfguQuV-17" value="" style="rounded=0;html=1;jettySize=auto;orthogonalLoop=1;fontSize=11;endArrow=block;endFill=0;endSize=8;strokeWidth=1;shadow=0;labelBackgroundColor=none;edgeStyle=orthogonalEdgeStyle;strokeColor=#36393d;fillColor=#eeeeee;fontColor=#000000;exitX=1;exitY=0.5;exitDx=0;exitDy=0;entryX=0.5;entryY=0;entryDx=0;entryDy=0;" parent="WIyWlLk6GJQsqaUBKTNV-1" source="gXV8-5lS1U5zjnlFUvk6-14" target="SMtHybRJAJT8ehfguQuV-19" edge="1">
          <mxGeometry relative="1" as="geometry">
            <mxPoint x="-180.00000000000006" y="430" as="sourcePoint" />
            <mxPoint x="-179.73000000000008" y="460" as="targetPoint" />
            <Array as="points">
              <mxPoint x="-220" y="395" />
              <mxPoint x="-220" y="440" />
              <mxPoint x="-300" y="440" />
            </Array>
          </mxGeometry>
        </mxCell>
        <mxCell id="SMtHybRJAJT8ehfguQuV-19" value="Вывод&amp;nbsp;&lt;br&gt;&#39;массив не упорядочен&#39;" style="shape=parallelogram;perimeter=parallelogramPerimeter;whiteSpace=wrap;html=1;fixedSize=1;strokeColor=#36393d;fillColor=#eeeeee;fontColor=#000000;" parent="WIyWlLk6GJQsqaUBKTNV-1" vertex="1">
          <mxGeometry x="-360" y="460" width="120" height="50" as="geometry" />
        </mxCell>
        <mxCell id="SMtHybRJAJT8ehfguQuV-20" value="" style="rounded=0;html=1;jettySize=auto;orthogonalLoop=1;fontSize=11;endArrow=block;endFill=0;endSize=8;strokeWidth=1;shadow=0;labelBackgroundColor=none;edgeStyle=orthogonalEdgeStyle;strokeColor=#36393d;fillColor=#eeeeee;fontColor=#000000;" parent="WIyWlLk6GJQsqaUBKTNV-1" edge="1">
          <mxGeometry relative="1" as="geometry">
            <mxPoint x="-480.3700000000001" y="830" as="sourcePoint" />
            <mxPoint x="-480.3700000000001" y="860" as="targetPoint" />
          </mxGeometry>
        </mxCell>
        <mxCell id="2xioK6IHDwXSdCJLh5u1-1" value="&lt;font style=&quot;font-size: 10px;&quot;&gt;Вывод &lt;br&gt;&#39;исходные массивы&#39;&lt;/font&gt;" style="shape=parallelogram;perimeter=parallelogramPerimeter;whiteSpace=wrap;html=1;fixedSize=1;strokeColor=#36393d;fillColor=#eeeeee;fontColor=#000000;" parent="WIyWlLk6GJQsqaUBKTNV-1" vertex="1">
          <mxGeometry x="-540" y="680" width="120" height="50" as="geometry" />
        </mxCell>
        <mxCell id="2xioK6IHDwXSdCJLh5u1-2" value="" style="rounded=0;html=1;jettySize=auto;orthogonalLoop=1;fontSize=11;endArrow=block;endFill=0;endSize=8;strokeWidth=1;shadow=0;labelBackgroundColor=none;edgeStyle=orthogonalEdgeStyle;strokeColor=#36393d;fillColor=#eeeeee;fontColor=#000000;" parent="WIyWlLk6GJQsqaUBKTNV-1" edge="1">
          <mxGeometry relative="1" as="geometry">
            <mxPoint x="-480.19000000000017" y="650" as="sourcePoint" />
            <mxPoint x="-479.9200000000002" y="680" as="targetPoint" />
          </mxGeometry>
        </mxCell>
        <mxCell id="2xioK6IHDwXSdCJLh5u1-4" value="" style="rounded=0;html=1;jettySize=auto;orthogonalLoop=1;fontSize=11;endArrow=block;endFill=0;endSize=8;strokeWidth=1;shadow=0;labelBackgroundColor=none;edgeStyle=orthogonalEdgeStyle;strokeColor=#36393d;fillColor=#eeeeee;fontColor=#000000;" parent="WIyWlLk6GJQsqaUBKTNV-1" edge="1">
          <mxGeometry relative="1" as="geometry">
            <mxPoint x="-480.2600000000001" y="480" as="sourcePoint" />
            <mxPoint x="-479.9900000000001" y="510" as="targetPoint" />
          </mxGeometry>
        </mxCell>
        <mxCell id="2xioK6IHDwXSdCJLh5u1-5" value="" style="rounded=0;html=1;jettySize=auto;orthogonalLoop=1;fontSize=11;endArrow=block;endFill=0;endSize=8;strokeWidth=1;shadow=0;labelBackgroundColor=none;edgeStyle=orthogonalEdgeStyle;strokeColor=#36393d;fillColor=#eeeeee;fontColor=#000000;" parent="WIyWlLk6GJQsqaUBKTNV-1" edge="1">
          <mxGeometry relative="1" as="geometry">
            <mxPoint x="-480.4300000000002" y="550" as="sourcePoint" />
            <mxPoint x="-480.1600000000002" y="580" as="targetPoint" />
          </mxGeometry>
        </mxCell>
        <mxCell id="2xioK6IHDwXSdCJLh5u1-9" value="" style="rounded=0;html=1;jettySize=auto;orthogonalLoop=1;fontSize=11;endArrow=block;endFill=0;endSize=8;strokeWidth=1;shadow=0;labelBackgroundColor=none;edgeStyle=orthogonalEdgeStyle;strokeColor=#36393d;fillColor=#eeeeee;fontColor=#000000;" parent="WIyWlLk6GJQsqaUBKTNV-1" edge="1">
          <mxGeometry relative="1" as="geometry">
            <mxPoint x="-300.48" y="330" as="sourcePoint" />
            <mxPoint x="-300.21000000000004" y="360" as="targetPoint" />
          </mxGeometry>
        </mxCell>
        <mxCell id="2xioK6IHDwXSdCJLh5u1-11" value="c:=c+1" style="rounded=0;whiteSpace=wrap;html=1;strokeColor=#36393d;fillColor=#eeeeee;fontColor=#000000;" parent="WIyWlLk6GJQsqaUBKTNV-1" vertex="1">
          <mxGeometry x="-360" y="540" width="120" height="40" as="geometry" />
        </mxCell>
        <mxCell id="2xioK6IHDwXSdCJLh5u1-13" value="a[i]:=random(5)" style="rounded=0;whiteSpace=wrap;html=1;strokeColor=#36393d;fillColor=#eeeeee;fontColor=#000000;" parent="WIyWlLk6GJQsqaUBKTNV-1" vertex="1">
          <mxGeometry x="-540" y="440" width="120" height="40" as="geometry" />
        </mxCell>
        <mxCell id="2xioK6IHDwXSdCJLh5u1-15" value="i := i + 1" style="rounded=0;whiteSpace=wrap;html=1;strokeColor=#36393d;fillColor=#eeeeee;fontColor=#000000;" parent="WIyWlLk6GJQsqaUBKTNV-1" vertex="1">
          <mxGeometry x="-540" y="510" width="120" height="40" as="geometry" />
        </mxCell>
        <mxCell id="BOUWuCyAhoZnOv69WV6i-0" value="Начало цикла 2&lt;br&gt;i &amp;gt; N" style="strokeWidth=1;html=1;shape=mxgraph.flowchart.loop_limit;whiteSpace=wrap;strokeColor=#36393d;fillColor=#eeeeee;fontColor=#000000;" parent="WIyWlLk6GJQsqaUBKTNV-1" vertex="1">
          <mxGeometry x="-540" y="760" width="120" height="70" as="geometry" />
        </mxCell>
        <mxCell id="BOUWuCyAhoZnOv69WV6i-1" value="&lt;font style=&quot;&quot;&gt;&lt;font style=&quot;font-size: 12px;&quot;&gt;Вывод &lt;br&gt;(a[i], &#39; &#39;)&lt;/font&gt;&lt;br&gt;&lt;/font&gt;" style="shape=parallelogram;perimeter=parallelogramPerimeter;whiteSpace=wrap;html=1;fixedSize=1;strokeColor=#36393d;fillColor=#eeeeee;fontColor=#000000;" parent="WIyWlLk6GJQsqaUBKTNV-1" vertex="1">
          <mxGeometry x="-540" y="860" width="120" height="50" as="geometry" />
        </mxCell>
        <mxCell id="BOUWuCyAhoZnOv69WV6i-3" value="" style="rounded=0;html=1;jettySize=auto;orthogonalLoop=1;fontSize=11;endArrow=block;endFill=0;endSize=8;strokeWidth=1;shadow=0;labelBackgroundColor=none;edgeStyle=orthogonalEdgeStyle;strokeColor=#36393d;fillColor=#eeeeee;fontColor=#000000;" parent="WIyWlLk6GJQsqaUBKTNV-1" edge="1">
          <mxGeometry relative="1" as="geometry">
            <mxPoint x="-480.34000000000015" y="910" as="sourcePoint" />
            <mxPoint x="-300" y="90" as="targetPoint" />
            <Array as="points">
              <mxPoint x="-480" y="930" />
              <mxPoint x="-410" y="930" />
              <mxPoint x="-410" y="50" />
              <mxPoint x="-300" y="50" />
              <mxPoint x="-300" y="90" />
            </Array>
          </mxGeometry>
        </mxCell>
        <mxCell id="BOUWuCyAhoZnOv69WV6i-4" value="i := i + 1" style="rounded=0;whiteSpace=wrap;html=1;strokeColor=#36393d;fillColor=#eeeeee;fontColor=#000000;" parent="WIyWlLk6GJQsqaUBKTNV-1" vertex="1">
          <mxGeometry x="-360" y="90" width="120" height="40" as="geometry" />
        </mxCell>
        <mxCell id="BOUWuCyAhoZnOv69WV6i-5" value="" style="rounded=0;html=1;jettySize=auto;orthogonalLoop=1;fontSize=11;endArrow=block;endFill=0;endSize=8;strokeWidth=1;shadow=0;labelBackgroundColor=none;edgeStyle=orthogonalEdgeStyle;strokeColor=#36393d;fillColor=#eeeeee;fontColor=#000000;" parent="WIyWlLk6GJQsqaUBKTNV-1" edge="1">
          <mxGeometry relative="1" as="geometry">
            <mxPoint x="-300.28999999999996" y="130" as="sourcePoint" />
            <mxPoint x="-300.02" y="160" as="targetPoint" />
          </mxGeometry>
        </mxCell>
        <mxCell id="BOUWuCyAhoZnOv69WV6i-6" value="Конец цикла 2" style="strokeWidth=1;html=1;shape=mxgraph.flowchart.loop_limit;whiteSpace=wrap;strokeColor=#36393d;fillColor=#eeeeee;fontColor=#000000;direction=west;" parent="WIyWlLk6GJQsqaUBKTNV-1" vertex="1">
          <mxGeometry x="-360" y="160" width="120" height="70" as="geometry" />
        </mxCell>
        <mxCell id="BOUWuCyAhoZnOv69WV6i-7" value="" style="rounded=0;html=1;jettySize=auto;orthogonalLoop=1;fontSize=11;endArrow=block;endFill=0;endSize=8;strokeWidth=1;shadow=0;labelBackgroundColor=none;edgeStyle=orthogonalEdgeStyle;strokeColor=#36393d;fillColor=#eeeeee;fontColor=#000000;" parent="WIyWlLk6GJQsqaUBKTNV-1" edge="1">
          <mxGeometry relative="1" as="geometry">
            <mxPoint x="-300.23" y="230" as="sourcePoint" />
            <mxPoint x="-299.96000000000004" y="260" as="targetPoint" />
          </mxGeometry>
        </mxCell>
        <mxCell id="BOUWuCyAhoZnOv69WV6i-8" value="Начало цикла 3&lt;br&gt;i &amp;gt; N" style="strokeWidth=1;html=1;shape=mxgraph.flowchart.loop_limit;whiteSpace=wrap;strokeColor=#36393d;fillColor=#eeeeee;fontColor=#000000;" parent="WIyWlLk6GJQsqaUBKTNV-1" vertex="1">
          <mxGeometry x="-360" y="260" width="120" height="70" as="geometry" />
        </mxCell>
        <mxCell id="BOUWuCyAhoZnOv69WV6i-10" value="" style="rounded=0;html=1;jettySize=auto;orthogonalLoop=1;fontSize=11;endArrow=block;endFill=0;endSize=8;strokeWidth=1;shadow=0;labelBackgroundColor=none;edgeStyle=orthogonalEdgeStyle;strokeColor=#36393d;fillColor=#eeeeee;fontColor=#000000;" parent="WIyWlLk6GJQsqaUBKTNV-1" edge="1">
          <mxGeometry relative="1" as="geometry">
            <mxPoint x="-300.4500000000003" y="510" as="sourcePoint" />
            <mxPoint x="-300.1800000000003" y="540" as="targetPoint" />
          </mxGeometry>
        </mxCell>
        <mxCell id="YE0YYtaghOAApN1b9zoq-0" value="" style="rounded=0;html=1;jettySize=auto;orthogonalLoop=1;fontSize=11;endArrow=block;endFill=0;endSize=8;strokeWidth=1;shadow=0;labelBackgroundColor=none;edgeStyle=orthogonalEdgeStyle;strokeColor=#36393d;fillColor=#eeeeee;fontColor=#000000;" parent="WIyWlLk6GJQsqaUBKTNV-1" edge="1">
          <mxGeometry relative="1" as="geometry">
            <mxPoint x="-300.24000000000024" y="580" as="sourcePoint" />
            <mxPoint x="-300" y="730" as="targetPoint" />
            <Array as="points">
              <mxPoint x="-300" y="590" />
              <mxPoint x="-230" y="590" />
              <mxPoint x="-230" y="690" />
              <mxPoint x="-300" y="690" />
            </Array>
          </mxGeometry>
        </mxCell>
        <mxCell id="YE0YYtaghOAApN1b9zoq-1" value="Конец цикла 3" style="strokeWidth=1;html=1;shape=mxgraph.flowchart.loop_limit;whiteSpace=wrap;strokeColor=#36393d;fillColor=#eeeeee;fontColor=#000000;direction=west;" parent="WIyWlLk6GJQsqaUBKTNV-1" vertex="1">
          <mxGeometry x="-360" y="610" width="120" height="70" as="geometry" />
        </mxCell>
        <mxCell id="YE0YYtaghOAApN1b9zoq-5" value="с=0" style="rhombus;whiteSpace=wrap;html=1;shadow=0;fontFamily=Helvetica;fontSize=12;align=center;strokeWidth=1;spacing=6;spacingTop=-4;strokeColor=#36393d;fillColor=#eeeeee;fontColor=#000000;" parent="WIyWlLk6GJQsqaUBKTNV-1" vertex="1">
          <mxGeometry x="-360" y="730" width="120" height="70" as="geometry" />
        </mxCell>
        <mxCell id="YE0YYtaghOAApN1b9zoq-6" value="" style="rounded=0;html=1;jettySize=auto;orthogonalLoop=1;fontSize=11;endArrow=block;endFill=0;endSize=8;strokeWidth=1;shadow=0;labelBackgroundColor=none;edgeStyle=orthogonalEdgeStyle;strokeColor=#36393d;fillColor=#eeeeee;fontColor=#000000;" parent="WIyWlLk6GJQsqaUBKTNV-1" edge="1">
          <mxGeometry relative="1" as="geometry">
            <mxPoint x="-300.2900000000002" y="800" as="sourcePoint" />
            <mxPoint x="-300.0200000000002" y="830" as="targetPoint" />
          </mxGeometry>
        </mxCell>
        <mxCell id="YE0YYtaghOAApN1b9zoq-7" value="Вывод&amp;nbsp;&lt;br&gt;&#39;массив&lt;br&gt;&amp;nbsp;упорядочен&#39;" style="shape=parallelogram;perimeter=parallelogramPerimeter;whiteSpace=wrap;html=1;fixedSize=1;strokeColor=#36393d;fillColor=#eeeeee;fontColor=#000000;" parent="WIyWlLk6GJQsqaUBKTNV-1" vertex="1">
          <mxGeometry x="-360" y="830" width="120" height="50" as="geometry" />
        </mxCell>
        <mxCell id="YE0YYtaghOAApN1b9zoq-8" value="да" style="text;html=1;align=center;verticalAlign=middle;resizable=0;points=[];autosize=1;strokeColor=none;fillColor=none;" parent="WIyWlLk6GJQsqaUBKTNV-1" vertex="1">
          <mxGeometry x="-250" y="370" width="40" height="30" as="geometry" />
        </mxCell>
        <mxCell id="YE0YYtaghOAApN1b9zoq-9" style="edgeStyle=orthogonalEdgeStyle;rounded=0;orthogonalLoop=1;jettySize=auto;html=1;exitX=0;exitY=0.5;exitDx=0;exitDy=0;entryX=0.003;entryY=0.668;entryDx=0;entryDy=0;entryPerimeter=0;" parent="WIyWlLk6GJQsqaUBKTNV-1" source="gXV8-5lS1U5zjnlFUvk6-14" target="BOUWuCyAhoZnOv69WV6i-8" edge="1">
          <mxGeometry relative="1" as="geometry" />
        </mxCell>
        <mxCell id="YE0YYtaghOAApN1b9zoq-10" value="нет" style="text;html=1;align=center;verticalAlign=middle;resizable=0;points=[];autosize=1;strokeColor=none;fillColor=none;" parent="WIyWlLk6GJQsqaUBKTNV-1" vertex="1">
          <mxGeometry x="-380" y="360" width="40" height="30" as="geometry" />
        </mxCell>
        <mxCell id="YE0YYtaghOAApN1b9zoq-11" value="" style="rounded=0;html=1;jettySize=auto;orthogonalLoop=1;fontSize=11;endArrow=block;endFill=0;endSize=8;strokeWidth=1;shadow=0;labelBackgroundColor=none;edgeStyle=orthogonalEdgeStyle;strokeColor=#36393d;fillColor=#eeeeee;fontColor=#000000;" parent="WIyWlLk6GJQsqaUBKTNV-1" edge="1">
          <mxGeometry relative="1" as="geometry">
            <mxPoint x="-300.23000000000025" y="580" as="sourcePoint" />
            <mxPoint x="-299.96000000000026" y="610" as="targetPoint" />
          </mxGeometry>
        </mxCell>
        <mxCell id="YE0YYtaghOAApN1b9zoq-12" value="" style="rounded=0;html=1;jettySize=auto;orthogonalLoop=1;fontSize=11;endArrow=block;endFill=0;endSize=8;strokeWidth=1;shadow=0;labelBackgroundColor=none;edgeStyle=orthogonalEdgeStyle;strokeColor=#36393d;fillColor=#eeeeee;fontColor=#000000;" parent="WIyWlLk6GJQsqaUBKTNV-1" edge="1">
          <mxGeometry relative="1" as="geometry">
            <mxPoint x="-300.34000000000015" y="880" as="sourcePoint" />
            <mxPoint x="-300.34000000000015" y="910" as="targetPoint" />
          </mxGeometry>
        </mxCell>
        <mxCell id="rT-GZ36wrHwSxTMM5smb-0" value="" style="endArrow=none;dashed=1;html=1;rounded=0;exitX=0;exitY=0.5;exitDx=0;exitDy=0;" edge="1" parent="WIyWlLk6GJQsqaUBKTNV-1" source="2xioK6IHDwXSdCJLh5u1-13">
          <mxGeometry width="50" height="50" relative="1" as="geometry">
            <mxPoint x="-530" y="610" as="sourcePoint" />
            <mxPoint x="-590" y="460" as="targetPoint" />
          </mxGeometry>
        </mxCell>
        <mxCell id="rT-GZ36wrHwSxTMM5smb-1" value="" style="strokeWidth=1;html=1;shape=mxgraph.flowchart.annotation_1;align=left;pointerEvents=1;direction=east;strokeColor=#36393d;rotation=-180;" vertex="1" parent="WIyWlLk6GJQsqaUBKTNV-1">
          <mxGeometry x="-600" y="440" width="10" height="40" as="geometry" />
        </mxCell>
        <mxCell id="rT-GZ36wrHwSxTMM5smb-2" value="random - генерация и получение случайных чисел" style="text;html=1;strokeColor=none;fillColor=none;align=center;verticalAlign=middle;whiteSpace=wrap;rounded=0;" vertex="1" parent="WIyWlLk6GJQsqaUBKTNV-1">
          <mxGeometry x="-760" y="445" width="170" height="30" as="geometry" />
        </mxCell>
      </root>
    </mxGraphModel>
  </diagram>
</mxfile>
